<mxfile host="app.diagrams.net" modified="2024-01-12T05:19:35.964Z" agent="Mozilla/5.0 (Windows NT 10.0; Win64; x64) AppleWebKit/537.36 (KHTML, like Gecko) Chrome/120.0.0.0 Safari/537.36 Edg/120.0.0.0" etag="FG6rf3qbBrLen_VmVqDp" version="22.1.18" type="github">
  <diagram name="第 1 页" id="WLKe82YckZ-AthvR6e3o">
    <mxGraphModel dx="1407" dy="720" grid="1" gridSize="10" guides="1" tooltips="1" connect="1" arrows="1" fold="1" page="1" pageScale="1" pageWidth="827" pageHeight="1169" math="0" shadow="0">
      <root>
        <mxCell id="0" />
        <mxCell id="1" parent="0" />
        <mxCell id="wGgZtADMz8uqcrAGJYZ0-4" style="edgeStyle=orthogonalEdgeStyle;rounded=0;orthogonalLoop=1;jettySize=auto;html=1;entryX=0;entryY=0.5;entryDx=0;entryDy=0;" parent="1" source="-nO4xTUv9DtAdoL6QTUD-2" target="-nO4xTUv9DtAdoL6QTUD-11" edge="1">
          <mxGeometry relative="1" as="geometry" />
        </mxCell>
        <mxCell id="-nO4xTUv9DtAdoL6QTUD-2" value="未初始化" style="rounded=1;whiteSpace=wrap;html=1;" parent="1" vertex="1">
          <mxGeometry x="190" y="270" width="120" height="60" as="geometry" />
        </mxCell>
        <mxCell id="-nO4xTUv9DtAdoL6QTUD-10" style="edgeStyle=orthogonalEdgeStyle;rounded=0;orthogonalLoop=1;jettySize=auto;html=1;" parent="1" source="-nO4xTUv9DtAdoL6QTUD-5" target="-nO4xTUv9DtAdoL6QTUD-2" edge="1">
          <mxGeometry relative="1" as="geometry" />
        </mxCell>
        <mxCell id="-nO4xTUv9DtAdoL6QTUD-5" value="" style="ellipse;html=1;shape=startState;fillColor=#000000;strokeColor=#ff0000;" parent="1" vertex="1">
          <mxGeometry x="50" y="285" width="30" height="30" as="geometry" />
        </mxCell>
        <mxCell id="-nO4xTUv9DtAdoL6QTUD-9" value="新建报告" style="text;html=1;strokeColor=none;fillColor=none;align=center;verticalAlign=middle;whiteSpace=wrap;rounded=0;" parent="1" vertex="1">
          <mxGeometry x="70" y="275" width="130" height="30" as="geometry" />
        </mxCell>
        <mxCell id="-nO4xTUv9DtAdoL6QTUD-11" value="生成中" style="rounded=1;whiteSpace=wrap;html=1;" parent="1" vertex="1">
          <mxGeometry x="461" y="270" width="120" height="60" as="geometry" />
        </mxCell>
        <mxCell id="-nO4xTUv9DtAdoL6QTUD-13" value="用户选择报告类型，&lt;br&gt;进行报告生成" style="text;html=1;align=center;verticalAlign=middle;resizable=0;points=[];autosize=1;strokeColor=none;fillColor=none;" parent="1" vertex="1">
          <mxGeometry x="321" y="261" width="130" height="40" as="geometry" />
        </mxCell>
        <mxCell id="wGgZtADMz8uqcrAGJYZ0-2" style="edgeStyle=orthogonalEdgeStyle;rounded=0;orthogonalLoop=1;jettySize=auto;html=1;entryX=0;entryY=0.5;entryDx=0;entryDy=0;" parent="1" target="wGgZtADMz8uqcrAGJYZ0-1" edge="1">
          <mxGeometry relative="1" as="geometry">
            <mxPoint x="580" y="300" as="sourcePoint" />
          </mxGeometry>
        </mxCell>
        <mxCell id="l6yJgwb1NW9B_2ungp-H-36" value="" style="ellipse;html=1;shape=endState;fillColor=#000000;strokeColor=#ff0000;" parent="1" vertex="1">
          <mxGeometry x="1397" y="285" width="30" height="30" as="geometry" />
        </mxCell>
        <mxCell id="EPRzvtwArOqZ6eKEPvZ4-3" style="edgeStyle=orthogonalEdgeStyle;rounded=0;orthogonalLoop=1;jettySize=auto;html=1;" edge="1" parent="1" source="wGgZtADMz8uqcrAGJYZ0-1" target="EPRzvtwArOqZ6eKEPvZ4-2">
          <mxGeometry relative="1" as="geometry" />
        </mxCell>
        <mxCell id="wGgZtADMz8uqcrAGJYZ0-1" value="已生成" style="rounded=1;whiteSpace=wrap;html=1;" parent="1" vertex="1">
          <mxGeometry x="720" y="270" width="120" height="60" as="geometry" />
        </mxCell>
        <mxCell id="EPRzvtwArOqZ6eKEPvZ4-1" value="得到分析结果" style="text;html=1;align=center;verticalAlign=middle;resizable=0;points=[];autosize=1;strokeColor=none;fillColor=none;" vertex="1" parent="1">
          <mxGeometry x="600" y="269" width="100" height="30" as="geometry" />
        </mxCell>
        <mxCell id="EPRzvtwArOqZ6eKEPvZ4-6" style="edgeStyle=orthogonalEdgeStyle;rounded=0;orthogonalLoop=1;jettySize=auto;html=1;" edge="1" parent="1" source="EPRzvtwArOqZ6eKEPvZ4-2" target="EPRzvtwArOqZ6eKEPvZ4-5">
          <mxGeometry relative="1" as="geometry" />
        </mxCell>
        <mxCell id="EPRzvtwArOqZ6eKEPvZ4-2" value="已下载" style="rounded=1;whiteSpace=wrap;html=1;" vertex="1" parent="1">
          <mxGeometry x="950" y="270" width="120" height="60" as="geometry" />
        </mxCell>
        <mxCell id="EPRzvtwArOqZ6eKEPvZ4-4" value="下载报告" style="text;html=1;align=center;verticalAlign=middle;resizable=0;points=[];autosize=1;strokeColor=none;fillColor=none;" vertex="1" parent="1">
          <mxGeometry x="855" y="268" width="70" height="30" as="geometry" />
        </mxCell>
        <mxCell id="EPRzvtwArOqZ6eKEPvZ4-8" style="edgeStyle=orthogonalEdgeStyle;rounded=0;orthogonalLoop=1;jettySize=auto;html=1;" edge="1" parent="1" source="EPRzvtwArOqZ6eKEPvZ4-5" target="l6yJgwb1NW9B_2ungp-H-36">
          <mxGeometry relative="1" as="geometry" />
        </mxCell>
        <mxCell id="EPRzvtwArOqZ6eKEPvZ4-5" value="已删除" style="rounded=1;whiteSpace=wrap;html=1;" vertex="1" parent="1">
          <mxGeometry x="1170" y="270" width="120" height="60" as="geometry" />
        </mxCell>
        <mxCell id="EPRzvtwArOqZ6eKEPvZ4-7" value="删除报告" style="text;html=1;align=center;verticalAlign=middle;resizable=0;points=[];autosize=1;strokeColor=none;fillColor=none;" vertex="1" parent="1">
          <mxGeometry x="1080" y="268" width="70" height="30" as="geometry" />
        </mxCell>
      </root>
    </mxGraphModel>
  </diagram>
</mxfile>
